<?xml version="1.0" encoding="utf-8"?>
<!-- Generator: Adobe Illustrator 27.7.0, SVG Export Plug-In . SVG Version: 6.00 Build 0)  -->
<svg version="1.1" id="Capa_1" xmlns="http://www.w3.org/2000/svg" xmlns:xlink="http://www.w3.org/1999/xlink" x="0px" y="0px"
	 viewBox="0 0 297 145.2" style="enable-background:new 0 0 297 145.2;" xml:space="preserve">
<style type="text/css">
	.st0{fill:#D82E00;}
	.st1{fill:#872402;}
	.st2{fill:none;}
	.st3{fill:#C11700;}
	.st4{fill:#605D5B;}
</style>
<g>
	<g>
		<path class="st0" d="M57.1,53.6c1.4-0.4,2.5-0.7,3.1-1.1c0.8-0.4,1.6-1,2.2-1.7c0.6-0.7,1-1.4,1.3-2.2c0.3-0.8,0.4-1.6,0.4-2.5
			c0-0.9-0.3-1.7-0.9-2.4s-1.4-1.3-2.5-1.6c-0.4-0.2-1-0.3-1.7-0.5s-1.5-0.3-2.4-0.4s-1.8-0.2-2.7-0.2c-1.5,0-3.1,0.1-4.6,0.3
			s-3,0.5-4.3,0.9c-1.3,0.4-2.2,0.7-2.8,1.1c-0.5,0.3-1,0.7-1.4,1.3c-0.4,0.6-0.7,1.1-1,1.7c-0.2,0.5-0.3,0.9-0.3,1.1
			c0,0.3,0.1,0.5,0.2,0.7c0.2,0.2,0.4,0.2,0.6,0.2c0.2,0,0.6,0,1.1,0c0.5,0,1.2,0,1.9-0.1c1.3-0.1,2.2-0.1,2.5-0.1
			c0.3,0,0.4-0.1,0.4-0.2c0-0.1-0.1-0.2-0.3-0.2c-0.2,0-0.5,0-0.9,0c-0.4,0-0.7,0-1-0.1c-0.3,0-0.4-0.1-0.4-0.3
			c0-0.1,0.1-0.3,0.3-0.3c0.2-0.1,0.6-0.2,1.1-0.3c0.5-0.1,1.2-0.2,2-0.4c0.7-0.2,2-0.4,3.9-0.6c-0.6,0.8-1.5,2-2.6,3.4
			s-2.1,2.8-3.1,4.1c-1.2,0.1-1.9,0.2-2.1,0.3c-0.2,0-0.5,0.1-0.7,0.2c-0.2,0.1-0.4,0.2-0.6,0.4s-0.4,0.5-0.7,1
			c-0.4,0.6-0.6,1-0.6,1.3c0,0.3,0,0.4,0.2,0.5c0.2,0.1,0.6,0.3,1.3,0.6c-1.3,1.7-2.3,3.2-3,4.4c-0.7,1.2-1.1,2-1.1,2.3
			c0,0.5,0.3,0.7,0.9,0.7c0.2,0,0.6-0.2,1.1-0.5c0.5-0.4,0.8-0.8,1-1.3c0.2-0.8,1.2-2.3,2.9-4.6l6.7,3.3c1.4,0.7,2.5,1.2,3.1,1.6
			c0.7,0.4,1.4,0.7,2.2,1.2s1.4,0.8,1.9,1c0.5,0.2,0.7,0.3,0.8,0.3c0.3,0,0.6-0.2,0.7-0.6c0.1-0.4,0.2-1,0.2-1.8
			c0-0.7,0-1.3-0.1-1.6c-0.1-0.3-0.3-0.6-0.5-0.8c-0.3-0.2-0.8-0.5-1.7-1c-0.6-0.3-1.5-0.7-2.6-1.2c-1.1-0.5-2.4-1.1-4-1.7
			c-1.6-0.6-3.3-1.3-5.1-1.9c2.5-0.1,4.7-0.3,6.7-0.6C54,54.3,55.7,53.9,57.1,53.6z M49.6,50.6c0.6-0.9,1.1-1.5,1.5-2
			s0.6-0.9,0.8-1.3c0.2-0.4,0.3-0.8,0.3-1.2c0-0.1,0-0.2,0-0.3c0-0.1,0-0.1,0-0.2c0.2,0,0.5,0,1.1-0.1s1-0.1,1.4-0.1
			c0.4,0,0.8,0,1.1,0c1.7,0,3.2,0.2,4.4,0.5c1.2,0.3,1.8,0.8,1.8,1.4c0,0.5-0.3,1-0.9,1.5s-1.4,1-2.6,1.4c-1.1,0.4-2.6,0.9-4.4,1.3
			c-1.8,0.4-3.9,0.9-6.4,1.4C48.3,52.3,48.9,51.5,49.6,50.6z"/>
		<path class="st0" d="M101.3,58.8c-0.2,0.1-0.4,0.2-0.6,0.2h-0.3l-0.3-0.3c0.5-0.8,0.8-1.6,1.1-2.4c0.3-0.9,0.4-1.6,0.4-2.2
			c0-0.6-0.1-1-0.2-1.2c-0.2-0.2-0.5-0.4-0.9-0.5c0.3-0.3,0.4-0.6,0.4-0.8c0-0.3-0.2-0.6-0.5-0.7c-0.3-0.2-0.8-0.3-1.3-0.3
			c-0.8,0-1.6,0.2-2.6,0.7s-1.8,1.1-2.6,1.9c-0.8,0.8-1.5,1.7-2,2.6c-0.4,0.7-0.6,1.4-0.7,2.1c-1.7,1.4-2.9,2-3.6,2
			c-0.7,0-1-0.3-1-0.8c0-0.4,0.2-1,0.6-1.8s1-1.5,1.6-2.2c0.5-0.6,0.9-1,1.1-1.3s0.3-0.6,0.3-0.8c0-0.4-0.1-0.8-0.2-1.2
			c-0.1-0.4-0.3-0.6-0.5-0.7c-0.1,0-0.3-0.1-0.5-0.1c-0.6,0-2.2,0.2-4.6,0.6c0.4-0.6,0.6-1,0.6-1.2c0-0.2-0.1-0.3-0.4-0.3
			c-0.2,0-0.3,0-0.5,0.1c-0.4,0.2-0.9,0.5-1.4,1.1s-1,1.2-1.3,1.8s-0.5,1.2-0.5,1.6c0,0.4,0.1,0.7,0.3,0.9c0.2,0.2,0.4,0.4,0.8,0.5
			c-0.3,0.5-0.7,1.1-1.3,1.7c-1.2,1-2.2,1.7-2.9,2.2c-0.7,0.5-1.3,0.7-1.8,0.7c-0.7,0-1-0.4-1-1.2c0-0.6,0.1-1.2,0.3-1.9
			c0.2-0.7,0.6-1.4,1-2.2s1-1.7,1.6-2.8c0.3,0,0.6,0,0.8,0.1c0.2,0,0.5,0,0.7,0.1c0.2,0,0.5,0,0.8,0.1c1-1.3,1.9-2.6,2.6-3.9
			c-0.2,0-0.4-0.1-0.7-0.1c-0.3,0-0.7-0.1-1.1-0.1c0.3-0.4,0.6-1,1.2-1.6s0.8-1,0.8-1.2c0-0.3-0.3-0.4-1-0.4s-1.2,0.2-1.7,0.7
			s-1.1,1.3-1.7,2.4h-0.8c-0.9,0-1.6,0.1-2.1,0.2c-0.5,0.1-0.9,0.3-1.3,0.7c-0.4,0.3-0.7,0.8-1.1,1.5c-0.5,0.8-0.7,1.4-0.7,1.8
			c0,0.1,0,0.1,0.1,0.1s0.1,0,0.3-0.1c0.1,0,0.3-0.1,0.4-0.1c0.3-0.1,0.9-0.1,1.6-0.1c0.2,0,0.4,0,0.6,0c0.2,0,0.3,0,0.5,0
			c-1.8,2.6-3.3,4.5-4.5,5.5v0c-0.8,0.7-1.5,1.2-2.1,1.7c-0.6,0.5-1.2,0.8-1.9,1.1s-1.2,0.4-1.8,0.4c-0.6,0-1-0.2-1.4-0.6
			s-0.5-0.9-0.5-1.6v-0.4c1.7-0.7,3.1-1.4,4.2-2.1c1.1-0.7,2-1.5,2.6-2.2s0.8-1.5,0.8-2.2c0-0.5-0.2-0.9-0.5-1.2
			c-0.3-0.3-0.8-0.4-1.3-0.4c-0.7,0-1.5,0.2-2.4,0.6c-0.9,0.4-1.8,1-2.7,1.7c-1.3,1.1-2.3,2.2-2.9,3.2c-0.6,1-0.9,2.2-0.9,3.4
			c0,1.4,0.3,2.6,0.9,3.4c0.6,0.8,1.5,1.2,2.5,1.2c1.2,0,2.4-0.4,3.6-1.3c1.1-0.8,2.3-2,3.6-3.5v0.1c0.1-0.1,0.3-0.3,0.4-0.4
			c0.1-0.1,0.3-0.2,0.4-0.4c0.1-0.1,0.3-0.2,0.4-0.4c0.1-0.1,0.3-0.3,0.5-0.4c-0.5,1.2-0.8,2.1-1,2.7c-0.2,0.6-0.3,1.1-0.3,1.6
			c0,0.7,0.2,1.2,0.5,1.6s0.8,0.6,1.3,0.6c1.5,0,3.9-1.7,7-5.1c1.4-1.2,2.4-2.5,3.1-3.9c0.2,0,0.6-0.1,1.1-0.2
			c0.5-0.1,0.9-0.2,1.3-0.2s0.8-0.2,1.1-0.2c-0.6,0.8-1.2,1.5-1.7,2.3c-0.5,0.8-0.9,1.5-1.2,2.1S84,60.1,84,60.6
			c0,0.9,0.2,1.5,0.5,2c0.3,0.5,0.7,0.7,1.2,0.7c0.4,0,0.9-0.2,1.5-0.5c0.5-0.4,1.1-0.8,1.8-1.4c0.6-0.6,1.3-1.3,2.2-2.2
			c0.1,0.6,0.2,1.2,0.4,1.8c0.3,0.8,0.8,1.4,1.3,1.8c0.5,0.4,1.2,0.7,1.8,0.7c1.2,0,2.5-0.9,4.1-2.7c0.9,0,1.6,0,2.1-0.3
			c0.5-0.2,1.1-0.7,1.9-1.4v-1.2c-0.5,0.4-0.9,0.6-1,0.8S101.5,58.7,101.3,58.8z M64.7,55.3c0.4-0.6,0.8-1.1,1.3-1.6
			c0.5-0.4,1-0.8,1.5-1.1s0.8-0.4,1-0.4c0.2,0,0.4,0.1,0.4,0.4c0,0.3-0.2,0.7-0.5,1.2s-0.9,1.2-1.7,1.8C66,56.3,65,56.8,64,57.3
			C64.1,56.6,64.3,55.9,64.7,55.3z M97.8,55.7c-0.3,0.8-0.5,1.5-0.5,2.3c0,0.5,0.1,1,0.3,1.6c-1.2,0.9-2.1,1.3-2.6,1.3
			c-1.1,0-1.6-0.4-1.6-1.2c0-0.1,0.1-0.8,0.4-2.2c0.2-0.5,0.5-1,1-1.5c0.5-0.5,1.1-1,1.8-1.5s1.5-1,2.5-1.6
			C98.6,54.1,98.1,55,97.8,55.7z"/>
		<path class="st0" d="M123.2,42.3c-0.8-0.7-1.8-1.3-2.9-1.7c-1.2-0.4-2.4-0.6-3.8-0.6c-1.4,0-2.7,0.1-4.1,0.4
			c-1.4,0.3-2.7,0.7-3.8,1.1c-1.2,0.4-2.2,0.8-3.1,1.3c-0.9,0.5-1.6,0.9-2,1.2c-1,0.8-1.5,2.2-1.5,4.3c0,0.8,0.3,1.2,0.9,1.2
			c0.2,0,0.4,0,0.7-0.1s0.7-0.3,1.3-0.5c0.6-0.3,1.2-0.5,1.7-0.7c0.6-0.2,1.2-0.4,2-0.7c-0.7,0-1.5,0.1-2.3,0.2s-1.3,0.2-1.5,0.2
			c-0.2,0-0.2,0-0.2-0.1c0-0.1,0.3-0.3,0.9-0.6c0.6-0.3,1.4-0.6,2.3-0.9s1.9-0.6,2.9-0.9c1-0.3,2-0.4,2.8-0.5
			c-4.2,5.8-7.2,10.5-8.9,14.3c-0.2,0.6-0.4,1.1-0.5,1.5c-0.1,0.4-0.2,1-0.2,1.7c0,0.5,0.1,1,0.2,1.2c0.1,0.3,0.3,0.5,0.5,0.6
			c0.3,0.1,0.6,0.1,1,0.1c2.4,0,4.7-0.4,7.2-1.3c2.4-0.8,4.6-2,6.5-3.4s3.5-3.1,4.6-5s1.7-3.8,1.7-5.9c0-1.3-0.2-2.5-0.6-3.6
			C124.6,43.9,124,43,123.2,42.3z M122.3,53.8c-1,1.3-2.2,2.5-3.8,3.6c-1.6,1-3.3,1.9-5.1,2.5c-1.8,0.6-3.5,0.9-5.1,0.9
			c-0.6,0-1.1-0.1-1.5-0.2c-0.3-0.1-0.5-0.3-0.5-0.7c0-0.1,0-0.4,0.1-0.6s0.2-0.6,0.5-1s0.4-0.7,0.5-0.8c0.1-0.2,0.3-0.5,0.5-1
			c0.8-1.5,1.5-2.7,2.1-3.7c0.6-1,1.3-2.1,2.1-3.3c0.8-1.3,1.4-2.1,1.7-2.6c0.3-0.5,0.4-0.9,0.4-1.2c0-0.2,0-0.4-0.1-0.6
			c0-0.2-0.1-0.4-0.1-0.4c0.8-0.1,1.7-0.1,2.7-0.1c2.3,0,4,0.4,5.2,1.3c1.2,0.9,1.8,2.2,1.8,3.8C123.7,51.1,123.2,52.4,122.3,53.8z"
			/>
		<path class="st0" d="M144.4,49.8c0.6,0,1.1-0.3,1.6-0.9c0.5-0.6,0.7-1.2,0.7-1.7c0-0.4-0.1-0.7-0.4-1c-0.2-0.2-0.5-0.3-0.9-0.3
			c-0.5,0-1.1,0.3-1.6,1c-0.5,0.6-0.7,1.2-0.7,1.7c0,0.3,0.1,0.6,0.4,0.9C143.9,49.7,144.1,49.8,144.4,49.8z"/>
		<path class="st0" d="M165.7,59.6c-0.6,0.5-1.2,0.8-1.9,1.1s-1.2,0.4-1.8,0.4c-0.6,0-1-0.2-1.4-0.6s-0.5-0.9-0.5-1.6v-0.4
			c1.7-0.7,3.1-1.4,4.2-2.1c1.1-0.7,2-1.5,2.6-2.2s0.8-1.5,0.8-2.2c0-0.5-0.2-0.9-0.5-1.2c-0.3-0.3-0.8-0.4-1.3-0.4
			c-0.7,0-1.5,0.2-2.4,0.6c-0.9,0.4-1.8,1-2.7,1.7c-1.3,1.1-2.3,2.2-2.9,3.2c-0.3,0.6-0.6,1.2-0.7,1.9c-0.5,0.4-0.9,0.7-1.2,0.8
			c-0.3,0.2-0.6,0.3-0.9,0.3c-0.3,0-0.6-0.3-0.9-0.8c0.6-0.7,1.1-1.5,1.4-2.2c0.4-0.7,0.7-1.3,0.9-1.9c0.2-0.6,0.3-1.1,0.3-1.5
			c0-0.7-0.3-1-0.8-1c-0.3,0-0.8,0.4-1.5,1.1c-0.7,0.8-1.3,1.6-1.9,2.7c-0.6,1-0.9,1.9-0.9,2.7c-2,2-3.2,3-3.7,3
			c-0.5,0-0.8-0.3-0.8-1c0-0.2,0-0.5,0.1-0.6l0.3-1.5c1-0.8,2-1.8,2.8-3s1.2-2,1.2-2.6c0-0.2-0.2-0.3-0.5-0.5
			c-0.3-0.1-0.7-0.2-1-0.2c-0.4,0-0.8,0.1-1.1,0.4c-0.3,0.2-0.8,0.7-1.3,1.4c-1.5,1.8-2.3,3.4-2.6,4.8c-0.9,0.8-1.7,1.3-2.3,1.7
			c-0.7,0.4-1.3,0.6-1.8,0.6c-0.5,0-0.9-0.1-1.2-0.4c-0.3-0.3-0.5-0.6-0.5-1.1c0-0.5,0.2-0.9,0.5-1.3c0.3-0.4,1-1.1,2-2.1
			c0.4-0.3,0.8-0.9,1.3-1.7c0.5-0.8,0.7-1.4,0.7-1.8c0-0.6-0.4-0.8-1.1-0.8c-1.4,0-3,1.3-4.6,3.9c-0.4,0.6-0.6,1-0.7,1.3
			s-0.2,0.6-0.3,1c0,0.2-0.1,0.3-0.1,0.5c-1.7,1.4-2.9,2.1-3.6,2.1c-0.7,0-1-0.3-1-0.8c0-0.4,0.2-1,0.6-1.8c0.4-0.8,1-1.5,1.6-2.2
			c0.5-0.6,0.9-1,1.1-1.3s0.3-0.6,0.3-0.8c0-0.4-0.1-0.8-0.2-1.2s-0.3-0.6-0.5-0.7c-0.1,0-0.3-0.1-0.5-0.1c-0.6,0-2.2,0.2-4.6,0.6
			c0.4-0.6,0.6-1,0.6-1.2c0-0.2-0.1-0.3-0.4-0.3c-0.2,0-0.3,0-0.5,0.1c-0.4,0.2-0.9,0.5-1.4,1.1c-0.5,0.6-1,1.2-1.3,1.8
			c-0.4,0.7-0.5,1.2-0.5,1.6c0,0.4,0.1,0.7,0.3,0.9c0.2,0.2,0.4,0.4,0.8,0.5c-0.3,0.5-0.8,1.2-1.5,1.9v1.2c1.4-1.2,2.5-2.5,3.2-4
			c0.2,0,0.6-0.1,1.1-0.2c0.5-0.1,0.9-0.2,1.3-0.2s0.8-0.2,1.1-0.2c-0.6,0.8-1.2,1.5-1.7,2.3c-0.5,0.8-0.9,1.5-1.2,2.1
			s-0.4,1.2-0.4,1.7c0,0.9,0.2,1.5,0.5,2c0.3,0.5,0.7,0.7,1.2,0.7c0.4,0,0.9-0.2,1.5-0.5c0.5-0.4,1.1-0.8,1.8-1.4
			c0.6-0.6,1.4-1.3,2.3-2.2c0.1,1,0.3,2,0.7,2.9c0.5,1,1.2,1.5,2.2,1.5c0.7,0,1.6-0.4,2.6-1.1c0.9-0.7,1.8-1.6,2.8-2.9
			c0.1,0.9,0.4,1.8,0.8,2.6c0.6,1,1.3,1.5,2.1,1.5c0.5,0,1.1-0.3,1.9-1c0.8-0.6,1.7-1.6,3-2.9c0.6,0.3,1,0.5,1.3,0.5
			c0.6,0,1.1-0.1,1.5-0.3c0.4-0.2,0.8-0.5,1.4-0.9c0,0.1,0,0.1,0,0.2c0,1.4,0.3,2.6,0.9,3.4c0.6,0.8,1.5,1.2,2.5,1.2
			c1.2,0,2.4-0.4,3.6-1.3c1.2-0.9,2.4-2.1,3.8-3.7v-1.1C167.1,58.5,166.3,59.1,165.7,59.6z M161.1,55.3c0.4-0.6,0.8-1.1,1.3-1.6
			c0.5-0.4,1-0.8,1.5-1.1s0.8-0.4,1-0.4c0.2,0,0.4,0.1,0.4,0.4c0,0.3-0.2,0.7-0.5,1.2s-0.9,1.2-1.7,1.8c-0.8,0.6-1.7,1.1-2.7,1.6
			C160.5,56.6,160.7,55.9,161.1,55.3z"/>
	</g>
	<g>
		<path class="st1" d="M134,74.7c-2.4,0-4.1,2.5-4.1,5c0,1.9,1,3.2,2.8,3.2c1,0,1.7-0.4,2.3-0.9l-0.4-0.6c-0.5,0.4-1,0.7-1.7,0.7
			c-1.4,0-2-1-2-2.5c0-1.9,1.2-4.1,3.1-4.1c0.6,0,1,0.3,1.3,0.9l0.7-0.5C135.6,75.2,134.9,74.7,134,74.7z"/>
		<path class="st1" d="M139.5,76.8c-1.6,0-3.1,1.6-3.1,3.8c0,1.5,0.8,2.3,2.1,2.3c1.6,0,3.1-1.6,3.1-3.8
			C141.6,77.6,140.8,76.8,139.5,76.8z M138.5,82.1c-0.8,0-1.2-0.6-1.2-1.6c0-1.6,1.1-3,2.1-3c0.8,0,1.2,0.6,1.2,1.6
			C140.7,80.8,139.6,82.1,138.5,82.1z"/>
		<path class="st1" d="M146.3,76.8c-0.7,0-1.4,0.4-2,1h0l0.1-0.9h-0.8l-1.2,5.8h0.9l0.8-4.1c0.7-0.7,1.3-1.1,1.8-1.1
			c0.6,0,0.9,0.3,0.9,0.9c0,0.2,0,0.4-0.1,0.7l-0.7,3.6h0.9l0.7-3.7c0.1-0.3,0.1-0.5,0.1-0.8C147.7,77.3,147.3,76.8,146.3,76.8z"/>
		<path class="st1" d="M153.6,76.5l-0.2,1.1h0c-0.3-0.5-0.8-0.9-1.4-0.9c-1.6,0-3.1,1.8-3.1,4c0,1.4,0.7,2.1,1.7,2.1
			c0.7,0,1.5-0.4,2-1h0l-0.1,0.9h0.8l1.7-8.5h-0.9L153.6,76.5z M152.7,81c-0.6,0.8-1.2,1.1-1.8,1.1c-0.7,0-1.1-0.5-1.1-1.5
			c0-1.6,1.1-3.1,2.2-3.1c0.4,0,0.9,0.2,1.2,0.9L152.7,81z"/>
		<path class="st1" d="M159,81c-0.7,0.7-1.3,1.1-1.7,1.1c-0.6,0-0.9-0.3-0.9-0.9c0-0.2,0-0.4,0.1-0.7l0.7-3.6h-0.9l-0.7,3.7
			c-0.1,0.3-0.1,0.5-0.1,0.8c0,0.9,0.4,1.5,1.4,1.5c0.7,0,1.4-0.5,2-1h0l-0.1,0.9h0.8l1.2-5.8h-0.9L159,81z"/>
		<path class="st1" d="M161.6,80.5c0,1.5,0.9,2.3,2.1,2.3c0.9,0,1.4-0.4,1.9-0.7l-0.4-0.6c-0.4,0.3-0.8,0.5-1.3,0.5
			c-0.9,0-1.4-0.6-1.4-1.6c0-1.6,1.1-3,2.3-3c0.5,0,0.7,0.2,1,0.5l0.5-0.6c-0.3-0.4-0.8-0.7-1.5-0.7
			C163.1,76.8,161.6,78.4,161.6,80.5z"/>
		<path class="st1" d="M169.7,76.8c-1.5,0-3.1,1.5-3.1,3.7c0,1.6,0.9,2.4,2.3,2.4c0.8,0,1.4-0.3,1.9-0.6l-0.4-0.6
			c-0.4,0.3-0.9,0.5-1.3,0.5c-1,0-1.8-0.6-1.6-2.1h3.8c0.1-0.2,0.2-0.7,0.2-1.1C171.5,77.7,171,76.8,169.7,76.8z M170.7,79.4h-3.1
			c0.3-1.1,1.1-1.9,2-1.9c0.8,0,1.1,0.6,1.1,1.3C170.7,79,170.7,79.2,170.7,79.4z"/>
		<path class="st1" d="M177.2,74.2h-0.9l-1.5,7.4c0,0.2-0.1,0.4-0.1,0.5c0,0.5,0.3,0.8,0.8,0.8c0.2,0,0.4,0,0.6-0.1l0-0.7
			c-0.1,0-0.1,0-0.2,0c-0.1,0-0.2-0.1-0.2-0.2c0-0.1,0-0.1,0-0.2L177.2,74.2z"/>
		<path class="st1" d="M182.3,77.6L182.3,77.6c-0.3-0.5-0.8-0.9-1.5-0.9c-1.6,0-3.1,1.8-3.1,4c0,1.4,0.7,2.1,1.7,2.1
			c0.7,0,1.5-0.4,2-1h0l-0.1,0.9h0.8l1.2-5.8h-0.7L182.3,77.6z M181.5,81c-0.6,0.8-1.2,1.1-1.8,1.1c-0.7,0-1.1-0.5-1.1-1.5
			c0-1.6,1.1-3.1,2.2-3.1c0.4,0,0.9,0.2,1.2,0.9L181.5,81z"/>
		<polygon class="st1" points="191.8,78.2 188.2,78.2 188.9,74.9 188,74.9 186.4,82.7 187.3,82.7 188.1,79 191.6,79 190.9,82.7 
			191.8,82.7 193.4,74.9 192.4,74.9 		"/>
		<path class="st1" d="M195.8,74.4c-0.4,0-0.7,0.3-0.7,0.7c0,0.3,0.3,0.5,0.6,0.5c0.4,0,0.7-0.3,0.7-0.7
			C196.4,74.7,196.2,74.4,195.8,74.4z"/>
		<polygon class="st1" points="193.8,82.7 194.7,82.7 195.9,76.9 195,76.9 		"/>
		<path class="st1" d="M199.1,77.5c0.5,0,0.9,0.3,1.2,0.6l0.5-0.5c-0.4-0.5-1-0.8-1.7-0.8c-1.1,0-2,0.7-2,1.7c0,0.7,0.4,1.1,1.3,1.6
			c0.8,0.4,1.1,0.7,1.1,1.1c0,0.5-0.6,1-1.2,1c-0.6,0-1.1-0.3-1.5-0.8l-0.6,0.5c0.4,0.6,1.2,1.1,2,1.1c1.3,0,2.2-0.7,2.2-1.8
			c0-0.6-0.3-1.1-1.4-1.6c-0.5-0.3-1-0.5-1-1C198,77.9,198.5,77.5,199.1,77.5z"/>
		<path class="st1" d="M204.1,75.3h-0.8l-0.4,1.6l-0.9,0.1l-0.1,0.7h0.9l-0.7,3.3c0,0.2-0.1,0.4-0.1,0.6c0,0.7,0.4,1.3,1.4,1.3
			c0.5,0,0.8-0.1,1.1-0.3l-0.2-0.7c-0.2,0.1-0.4,0.2-0.6,0.2c-0.6,0-0.7-0.2-0.7-0.7c0-0.2,0-0.3,0-0.4l0.7-3.3h1.5l0.2-0.7h-1.5
			L204.1,75.3z"/>
		<path class="st1" d="M208.5,76.8c-1.6,0-3.1,1.6-3.1,3.8c0,1.5,0.8,2.3,2.1,2.3c1.6,0,3.1-1.6,3.1-3.8
			C210.6,77.6,209.7,76.8,208.5,76.8z M207.5,82.1c-0.8,0-1.2-0.6-1.2-1.6c0-1.6,1.1-3,2.1-3c0.8,0,1.2,0.6,1.2,1.6
			C209.6,80.8,208.6,82.1,207.5,82.1z"/>
		<path class="st1" d="M215,76.8c-0.7,0-1.3,0.6-1.8,1.3h0l0.1-1.1h-0.8l-1.2,5.8h0.9l0.7-3.7c0.5-1,1.1-1.5,1.7-1.5
			c0.2,0,0.4,0,0.5,0.1l0.3-0.8C215.4,76.8,215.3,76.8,215,76.8z"/>
		<path class="st1" d="M217.6,74.4c-0.4,0-0.7,0.3-0.7,0.7c0,0.3,0.3,0.5,0.6,0.5c0.4,0,0.7-0.3,0.7-0.7
			C218.2,74.7,217.9,74.4,217.6,74.4z"/>
		<polygon class="st1" points="215.5,82.7 216.4,82.7 217.6,76.9 216.7,76.9 		"/>
		<path class="st1" d="M223.3,76.9l-0.2,0.7h0c-0.3-0.5-0.8-0.9-1.4-0.9c-1.6,0-3.1,1.8-3.1,4c0,1.4,0.7,2.1,1.7,2.1
			c0.7,0,1.5-0.4,2-1h0l-0.1,0.9h0.8l1.2-5.8H223.3z M222.3,81c-0.6,0.8-1.2,1.1-1.8,1.1c-0.7,0-1.1-0.5-1.1-1.5
			c0-1.6,1.1-3.1,2.2-3.1c0.4,0,0.9,0.2,1.2,0.9L222.3,81z"/>
	</g>
	<rect x="107.2" y="100.2" class="st2" width="11.2" height="0"/>
	<g>
		<circle class="st3" cx="114" cy="80.1" r="3"/>
		<circle class="st4" cx="123" cy="80.1" r="3"/>
	</g>
</g>
</svg>
